<?xml version="1.0" encoding="utf-8"?>
<!-- Svg Vector Icons : http://www.onlinewebfonts.com/icon -->
<!DOCTYPE svg PUBLIC "-//W3C//DTD SVG 1.1//EN" "http://www.w3.org/Graphics/SVG/1.1/DTD/svg11.dtd">
<svg version="1.1" xmlns="http://www.w3.org/2000/svg" xmlns:xlink="http://www.w3.org/1999/xlink" x="0px" y="0px" viewBox="0 0 1000 1000" enable-background="new 0 0 1000 1000" xml:space="preserve">
<metadata> Svg Vector Icons : http://www.onlinewebfonts.com/icon </metadata>
<g><g transform="translate(0.000000,511.000000) scale(0.100000,-0.100000)"><path d="M2416.7,4415.7C1000.7,4252.8-84.6,2870.4,126.3,1497.6C337.1,120,1767.4-1712.8,4093.7-3586.3c754.7-608.5,838.5-661.3,979.9-620.5c81.4,21.6,301.9,186.9,828.9,608.6c527.1,426.4,539.1,438.4,539.1,575c0,179.7-115,301.9-282.7,301.9c-86.2,0-153.3-47.9-711.6-498.3c-232.4-186.9-431.3-340.2-443.2-340.2c-12,0-234.8,170.1-495.9,380.9C2481.4-1557,1182.8-47.7,801.9,1133.5C655.7,1583.9,639,1916.9,742,2357.7c186.9,809.8,898.4,1415.9,1729.8,1480.6c749.9,57.5,1382.4-194.1,1796.9-714c261.2-325.8,402.5-702,445.6-1183.5c19.2-225.2,24-244.4,95.8-306.7c131.8-117.4,256.4-117.4,388.1,0c71.9,62.3,76.7,81.5,95.8,306.7c69.5,769.1,421.7,1339.3,1027.8,1669.9c476.8,258.8,1133.2,311.5,1669.9,131.8c718.8-237.2,1197.9-817,1315.3-1586c64.7-414.5,2.4-790.6-208.4-1293.7C8978.8,580,8976.4,570.4,9007.6,477c62.3-179.7,263.5-254,424.1-155.7c88.7,52.7,196.5,268.3,316.3,622.9c119.8,364.2,153.4,555.8,150.9,922.4c0,280.3-12,373.8-62.3,567.8C9599.3,3340,8883,4075.5,7994.1,4331.9c-908,261.1-1859.2-9.6-2544.4-728.3C5296.4,3443,5076,3146,5018.5,3021.4c-12-21.6-16.8-21.6-28.8,0c-55.1,119.8-275.5,416.9-421.7,572.6c-440.8,467.2-1008.6,752.3-1631.5,821.8C2682.6,4444.5,2673,4444.5,2416.7,4415.7z"/><path d="M6005.6,929.8c-52.7-26.4-158.1-218-507.9-915.2c-275.5-548.7-448-864.9-455.2-843.3c-9.6,21.5-91.1,263.5-182.1,539.1c-179.7,548.6-234.8,646.9-371.3,673.2c-146.2,26.4-206-9.6-491.1-292.3L3720-181.8h-258.7c-277.9,0-361.8-24-431.3-129.4c-55.1-83.8-50.3-256.4,9.6-330.6c81.5-105.4,155.7-119.8,560.6-110.2l371.4,7.2l153.3,150.9c81.5,81.5,155.7,148.5,165.3,148.5c7.2,0,110.2-282.7,225.2-627.7c115-347.4,222.8-658.8,242-694.8c62.3-127,249.2-174.9,390.5-103c59.9,31.1,143.8,182.1,510.3,915.2c242,481.5,445.6,867.3,452.8,855.3c7.2-12,225.2-661.2,486.3-1442.3c450.4-1358.4,476.8-1423.1,548.7-1468.7c100.6-62.3,253.9-59.9,335.4,4.8c43.1,35.9,242,404.9,615.7,1150l548.7,1099.7h524.7c505.5,0,524.7,2.4,603.7,55.1c167.7,112.6,167.7,352.2,0,464.8c-79,55.1-93.4,55.1-730.7,55.1c-603.7,0-654-2.4-725.9-47.9c-67.1-38.3-146.2-179.7-510.3-910.4c-237.2-474.4-436-862.5-440.8-862.5c-4.8,0-218,622.9-472,1384.8c-251.6,759.5-474.4,1411.1-493.6,1447.1C6338.6,956.2,6142.2,1006.5,6005.6,929.8z"/></g></g>
</svg>